Coordinates
version=1
nRows=13
nColumns=18
inDegrees=yes

Units are S.I. units (second, meters, Newtons, ...)
Angles are in degrees.

endheader
time	ground_thorax_rot_x	ground_thorax_rot_y	ground_thorax_rot_z	ground_thorax_tx	ground_thorax_ty	ground_thorax_tz	clav_prot	clav_elev	scapula_abduction	scapula_elevation	scapula_upward_rot	scapula_winging	plane_elv	shoulder_elv	axial_rot	elbow_flexion	pro_sup
      4.69000000	      0.51620482	     -5.99456565	     -9.61457915	     -0.00423131	      0.00403036	     -0.00078352	    -40.87556687	      9.63168543	    -11.71400806	     -2.30268027	     61.13471456	    -11.81613733	     36.04717375	     73.64850073	     -3.19175900	      0.00000000	     34.32000000
      4.70000000	      0.79434535	     -6.07515278	     -9.62113784	     -0.00423131	      0.00403036	     -0.00078352	    -40.84915907	      9.62358852	    -11.77408441	     -2.30486075	     61.00473135	    -11.79789937	     35.99852371	     73.46539856	     -3.20113230	      0.00000000	     34.32000000
      4.71000000	      0.53918445	     -5.79133606	     -9.51606763	     -0.00423131	      0.00403036	     -0.00078352	    -40.97456394	      9.62740589	    -12.58384200	     -2.30378586	     60.25873744	    -11.85487521	     36.31498047	     73.06764869	     -3.38409256	      0.00000000	     34.32000000
      4.72000000	      0.55835069	     -5.60746827	     -9.39786581	     -0.00423131	      0.00403036	     -0.00078352	    -40.98515578	      9.78079418	    -12.98211211	     -2.19522118	     59.85494827	    -11.89084658	     36.25770561	     72.77244408	     -3.63525010	      0.00000000	     34.32000000
      4.73000000	      0.84407107	     -5.64150543	     -9.47638803	     -0.00423131	      0.00403036	     -0.00078352	    -40.93492588	      9.78381307	    -13.01890218	     -2.18689784	     59.71161935	    -11.86006885	     36.22113857	     72.57034325	     -3.64578294	      0.00000000	     34.32000000
      4.74000000	      0.53417967	     -5.54488648	     -9.43195678	     -0.00423131	      0.00403036	     -0.00078352	    -40.68283313	      9.53651825	    -13.16519335	     -2.31898373	     58.92477512	    -11.63782076	     35.93792384	     72.25024243	     -3.58155268	      0.00000000	     34.32000000
      4.75000000	      0.64197898	     -5.58165873	     -9.45263679	     -0.00423131	      0.00403036	     -0.00078352	    -40.66178761	      9.35872707	    -13.30727904	     -2.43101797	     58.63117889	    -11.57146133	     36.09268256	     72.04729221	     -3.72552316	      0.00000000	     34.32000000
      4.76000000	      0.85877073	     -5.64372553	     -9.42234637	     -0.00423131	      0.00403036	     -0.00078352	    -40.64272904	      9.33566021	    -13.34722022	     -2.44274321	     58.53425189	    -11.55159594	     36.06718377	     71.92800893	     -3.73311694	      0.00000000	     34.32000000
      4.77000000	      0.57829653	     -5.40305516	     -9.30177192	     -0.00423131	      0.00403036	     -0.00078352	    -40.63601692	      9.24299497	    -13.98838165	     -2.48290527	     57.68990227	    -11.49133230	     36.22782521	     71.68411957	     -3.76396584	      0.00000000	     34.32000000
      4.78000000	      0.91753602	     -5.57459310	     -9.39782316	     -0.00423131	      0.00403036	     -0.00078352	    -40.58667549	      9.24792957	    -14.05508483	     -2.47051055	     57.51238854	    -11.45807321	     36.18680072	     71.46042100	     -3.77414440	      0.00000000	     34.32000000
      4.79000000	      0.43802244	     -5.61624656	     -9.49161417	     -0.00423131	      0.00403036	     -0.00078352	    -40.13872226	      8.75029076	    -14.24975979	     -2.72741539	     56.16894634	    -11.02295409	     35.77322800	     71.61736230	     -3.36257272	      0.00000000	     34.32000000
      4.80000000	      0.45142321	     -5.52541252	     -9.40745437	     -0.00423131	      0.00403036	     -0.00078352	    -40.18373895	      8.83952465	    -14.68590229	     -2.65463199	     55.75837685	    -11.04672921	     35.78878709	     70.95675094	     -3.34479599	      0.00000000	     34.32000000
      4.81000000	      0.76618611	     -5.59234478	     -9.42721941	     -0.00423131	      0.00403036	     -0.00078352	    -40.14456300	      8.84730818	    -14.74840001	     -2.64008618	     55.60717936	    -11.01903007	     35.75365614	     70.73848436	     -3.35681576	      0.00000000	     34.32000000
